<?xml version="1.0" standalone="no"?> <!DOCTYPE svg PUBLIC "-//W3C//DTD SVG 1.0//EN" "http://www.w3.org/TR/2001/REC-SVG-20010904/DTD/svg10.dtd" > <svg xmlns="http://www.w3.org/2000/svg" width="100%" height="100%">
<defs >
<font id="myriadprocond" horiz-adv-x="755" ><font-face
    font-family="Myriad Pro Cond"
    units-per-em="2048"
    panose-1="2 11 5 6 3 4 3 2 2 4"
    ascent="1536"
    descent="-512"
    alphabetic="0" />
<missing-glyph horiz-adv-x="1024" d="M0 0V1434H1024V0H0ZM512 809L860 1331H164L512 809ZM573 717L922 195V1239L573 717ZM164 102H860L512 625L164 102ZM102 1239V195L451 717L102 1239Z" />
<glyph unicode=" " glyph-name="space" horiz-adv-x="321" />
<glyph unicode="!" glyph-name="exclam" horiz-adv-x="417" d="M274 385H143L123 1380H297L274 385ZM209 -16Q166 -16 138 15T109 94Q109 144 137 175T209 207Q255 207 282 176T309 94Q309 44 283 14T209 -16Z" />
<glyph unicode="&quot;" glyph-name="quotedbl" horiz-adv-x="632" d="M102 1397H248L219 920H131L102 1397ZM387 1397H532L506 920H416L387 1397Z" />
<glyph unicode="#" glyph-name="numbersign" horiz-adv-x="788" d="M297 514H455L494 827H336L297 514ZM231 0H125L178 408H45V514H193L231 827H90V932H246L297 1331H401L350 932H510L561 1331H664L612 932H743V827H598L559 514H702V412H547L494 0H387L440 412H283L231
0Z" />
<glyph unicode="$" glyph-name="dollar" horiz-adv-x="788" d="M444 -172H332V33Q208 36 104 102L141 225Q245 160 350 160Q438 160 488 218T539 367Q539 452 496 515T362 633Q307 666 269 694T192 763T132 857T111 971Q111 1090 177 1175T342 1286V1485H457V1298Q574
1298 653 1243L612 1122Q528 1174 436 1174Q356 1174 309 1120T262 995Q262 950 272 918T308 856T366 805T455 750Q575 679 631 590T688 385Q688 245 621 157T444 45V-172Z" />
<glyph unicode="%" glyph-name="percent" horiz-adv-x="1320" d="M313 1348Q427 1348 495 1238T563 942Q563 744 490 640T313 535Q202 535 132 645T61 938Q61 1127 132 1237T313 1348ZM313 1249Q265 1249 234 1199T193 1083T182 942Q182 885 188 835T208 737T249
661T313 633T377 661T417 736T436 833T442 940Q442 996 437 1045T418 1143T378 1220T313 1249ZM360 -16H260L958 1348H1059L360 -16ZM1010 793Q1123 793 1191 683T1260 389Q1260 193 1187 90T1010 -14Q897 -14 828 94T758 387Q758 573 829 683T1010 793ZM1047 694T1010
694T946 666T905 591T885 495T879 389T886 282T907 184T948 110T1010 82Q1047 82 1073 109T1113 184T1133 280T1139 387Q1139 442 1133 492T1114 589T1074 665Z" />
<glyph unicode="&amp;" glyph-name="ampersand" horiz-adv-x="1005" d="M971 0H795L700 129Q646 60 567 22T403 -16Q319 -16 252 16T144 103T81 225T59 367Q59 601 270 760V766Q170 925 170 1075Q170 1208 247 1302T453 1397Q554 1397 624 1323T694 1112Q694 1008
640 920T459 741V735Q576 538 721 344Q794 497 805 739H944Q932 603 896 470T795 240Q819 202 971 0ZM428 109Q551 109 633 229Q507 399 334 664Q211 545 211 383Q211 270 268 190T428 109ZM438 1280Q379 1280 347 1226T315 1085Q315 1015 333 957T393 834Q557
955 557 1106Q557 1178 528 1229T438 1280Z" />
<glyph unicode="&apos;" glyph-name="quotesingle" horiz-adv-x="348" d="M102 1397H248L219 920H131L102 1397Z" />
<glyph unicode="(" glyph-name="parenleft" horiz-adv-x="518" d="M344 1417H467Q254 1082 254 584Q254 94 467 -246H344Q249 -106 184 103T119 586Q122 861 186 1072T344 1417Z" />
<glyph unicode=")" glyph-name="parenright" horiz-adv-x="518" d="M174 -246H51Q147 -94 205 117T264 588Q264 847 206 1056T51 1417H174Q269 1283 334 1074T399 588Q396 310 332 102T174 -246Z" />
<glyph unicode="*" glyph-name="asterisk" horiz-adv-x="763" d="M500 1397L610 1335L436 1090V1085L713 1120V997L436 1028V1024L614 788L500 723L379 993L375 991L252 717L147 784L322 1030V1032L49 997V1120L317 1087L319 1092L150 1329L256 1391L379 1128H383L500
1397Z" />
<glyph unicode="+" glyph-name="plus" horiz-adv-x="1220" d="M553 1090H668V602H1139V492H668V0H553V492H82V602H553V1090Z" />
<glyph unicode="," glyph-name="comma" horiz-adv-x="397" d="M143 -244L35 -258Q68 -167 103 -26T154 219L332 240Q298 115 242 -30T143 -244Z" />
<glyph unicode="-" glyph-name="hyphen" horiz-adv-x="571" d="M61 596H510V473H61V596Z" />
<glyph unicode="." glyph-name="period" horiz-adv-x="397" d="M205 -16Q159 -16 130 16T100 102Q100 154 130 187T205 221Q252 221 280 189T309 102T281 16T205 -16Z" />
<glyph unicode="/" glyph-name="slash" horiz-adv-x="575" d="M133 -82H16L457 1397H575L133 -82Z" />
<glyph unicode="0" glyph-name="zero" horiz-adv-x="788" d="M406 1348Q565 1348 649 1169T733 668Q733 322 638 153T387 -16Q231 -16 143 162T55 664Q55 996 147 1172T406 1348ZM397 1212Q305 1212 259 1064T213 666Q213 412 259 266T399 119Q489 119 532 266T575
666Q575 786 565 883T534 1055T478 1171T397 1212Z" />
<glyph unicode="1" glyph-name="one" horiz-adv-x="788" d="M385 0V1171H381L160 1044L129 1167L410 1331H541V0H385Z" />
<glyph unicode="2" glyph-name="two" horiz-adv-x="788" d="M707 0H66V102L178 256Q330 467 386 561Q524 795 524 975Q524 1087 475 1149T334 1212Q311 1212 289 1208T250 1199T214 1184T186 1168T161 1152T141 1139L102 1257Q214 1348 362 1348Q520 1348 600
1246T680 983Q680 911 661 833T613 689T537 543T450 405T352 266L262 143V139H707V0Z" />
<glyph unicode="3" glyph-name="three" horiz-adv-x="788" d="M57 45L92 170Q182 115 285 115Q389 115 451 186T514 381Q514 510 441 582T246 655H209V774H240Q277 775 317 789T394 831T455 906T479 1012Q479 1110 431 1163T303 1217Q226 1217 137 1153L102 1272Q143
1304 207 1326T342 1348Q479 1348 558 1261T637 1040Q637 939 586 857T438 729V725Q538 697 605 610T672 377Q672 208 569 96T291 -16Q226 -16 162 0T57 45Z" />
<glyph unicode="4" glyph-name="four" horiz-adv-x="788" d="M623 0H479V367H37V473L469 1331H623V496H768V367H623V0ZM186 496H479V872Q479 972 492 1135H483Q423 992 371 883L186 500V496Z" />
<glyph unicode="5" glyph-name="five" horiz-adv-x="788" d="M682 1331V1192H324L268 838Q285 842 317 842Q377 842 449 816T571 741Q682 632 682 438Q682 239 569 112T279 -16Q218 -16 155 -1T53 41L88 168Q175 115 274 115Q382 115 454 195T526 422Q526 573
444 647T225 721Q157 721 121 715L205 1331H682Z" />
<glyph unicode="6" glyph-name="six" horiz-adv-x="788" d="M653 1348V1214Q612 1211 559 1200Q480 1181 418 1133T317 1017T254 876T217 721H223Q308 848 449 848Q577 848 656 737T735 438Q735 241 649 113T408 -16Q295 -16 215 56T97 248T59 524Q59 891 231
1124Q289 1206 376 1261T553 1335Q594 1343 653 1348ZM408 106Q482 106 530 184T578 426Q578 574 531 650T399 727Q348 727 302 691T227 584Q215 554 215 504Q216 308 269 207T408 106Z" />
<glyph unicode="7" glyph-name="seven" horiz-adv-x="788" d="M76 1331H717V1237L287 0H133L555 1188V1192H76V1331Z" />
<glyph unicode="8" glyph-name="eight" horiz-adv-x="788" d="M389 -16Q309 -16 245 14T140 93T79 202T57 326Q57 553 276 707L274 711Q192 767 146 848T100 1016Q100 1165 191 1256T412 1348Q503 1348 569 1301T665 1184T696 1034Q696 843 518 721V715Q731 573
731 352Q731 194 636 89T389 -16ZM395 100Q474 100 524 161T575 342Q575 415 547 475T481 573T385 649Q306 600 260 520T213 352Q213 239 262 170T395 100ZM399 1231Q333 1231 293 1174T252 1026T296 877T416 770Q478 814 513 878T549 1016Q549 1115 510 1173T399
1231Z" />
<glyph unicode="9" glyph-name="nine" horiz-adv-x="788" d="M137 -16V119Q184 119 236 131Q343 157 418 236Q543 373 573 614H567Q480 502 352 502Q225 502 143 610T61 897Q61 1085 154 1216T397 1348Q507 1348 584 1275T696 1083T731 813Q731 430 555 197Q498
118 418 66T248 -6Q194 -16 137 -16ZM389 1225Q320 1225 269 1147T217 911Q217 768 266 695T397 621Q447 621 491 653T561 739Q573 774 573 825Q573 1025 523 1125T389 1225Z" />
<glyph unicode=":" glyph-name="colon" horiz-adv-x="397" d="M205 735Q160 735 131 767T102 850T131 934T205 967Q252 967 279 935T307 850Q307 798 280 767T205 735ZM205 -16Q160 -16 131 16T102 98Q102 149 131 182T205 215Q252 215 279 183T307 98Q307 47
280 16T205 -16Z" />
<glyph unicode=";" glyph-name="semicolon" horiz-adv-x="397" d="M141 -244L37 -258Q70 -167 105 -26T156 219L330 240Q296 115 240 -30T141 -244ZM227 735Q183 735 154 767T125 850T154 934T227 967Q275 967 302 935T330 850Q330 798 303 767T227 735Z" />
<glyph unicode="&lt;" glyph-name="less" horiz-adv-x="1220" d="M135 496V594L1085 1090V952L291 547V543L1085 135V0L135 496Z" />
<glyph unicode="=" glyph-name="equal" horiz-adv-x="1220" d="M1139 688H82V801H1139V688ZM1139 301H82V414H1139V301Z" />
<glyph unicode="&gt;" glyph-name="greater" horiz-adv-x="1220" d="M1085 604V485L135 0V135L954 543V547L135 954V1090L1085 604Z" />
<glyph unicode="?" glyph-name="question" horiz-adv-x="632" d="M354 371H215L211 401Q177 595 297 791Q302 799 321 831T344 872T364 907T383 944T396 978T407 1016T413 1052T416 1094Q416 1177 373 1218T258 1260Q177 1260 123 1221L90 1343Q119 1363 175 1380T293
1397Q367 1397 423 1374T513 1310T562 1220T578 1114Q578 1071 571 1032T542 947T510 881T464 804T424 739Q375 655 359 581T352 406L354 371ZM276 -16Q232 -16 203 15T174 96Q174 148 203 180T276 213Q324 213 351 181T379 96Q379 46 352 15T276 -16Z" />
<glyph unicode="@" glyph-name="at" horiz-adv-x="1208" d="M713 477L772 776Q754 786 715 786Q640 786 575 722T473 560T436 360Q436 294 458 263T518 231Q579 231 636 307T713 477ZM838 -51L862 -123Q734 -201 559 -201Q457 -201 370 -165T215 -59T110 125T72
383Q72 606 156 796T389 1099T719 1212Q921 1212 1034 1078T1147 725Q1147 443 1060 288T831 133Q772 133 740 175T713 297H707Q659 209 600 171T483 133Q408 133 363 191T317 356Q317 426 334 498T388 639T476 760T599 845T756 877Q836 877 899 848L817 434Q775
219 860 219Q937 219 996 352T1055 686Q1055 901 968 1017T705 1133Q599 1133 501 1078T328 925T209 686T164 381Q164 136 275 10T586 -117Q716 -117 838 -51Z" />
<glyph unicode="A" glyph-name="A" horiz-adv-x="890" d="M594 414H289L197 0H45L360 1380H535L842 0H686L594 414ZM311 541H573L502 891Q486 965 446 1206H438Q414 1047 383 891L311 541Z" />
<glyph unicode="B" glyph-name="B" horiz-adv-x="851" d="M123 6V1360Q229 1386 354 1386Q559 1386 659 1290Q750 1207 750 1055Q750 949 694 869T537 748V743Q657 711 725 618T793 391Q793 224 694 117Q583 -8 330 -8Q198 -8 123 6ZM281 1253V795H352Q451 795
521 863T592 1038Q592 1141 538 1202T365 1264Q309 1264 281 1253ZM281 674V125Q317 117 360 117Q485 117 558 188T631 391Q631 527 550 599T350 674H281Z" />
<glyph unicode="C" glyph-name="C" horiz-adv-x="763" d="M700 158L725 25Q656 -12 528 -12Q317 -12 192 161T66 674Q66 831 96 957T174 1163T288 1296T418 1371T553 1393Q669 1393 725 1358L690 1225Q624 1253 551 1253Q492 1253 438 1223T336 1130T260 953T231
688Q231 565 249 468T296 308T368 204T457 145T555 127Q642 127 700 158Z" />
<glyph unicode="D" glyph-name="D" horiz-adv-x="911" d="M123 6V1360Q211 1386 336 1386Q544 1386 659 1282Q745 1208 795 1069T846 723Q846 320 680 141Q549 -8 299 -8Q189 -8 123 6ZM281 1249V129Q303 125 340 125Q395 125 442 141T535 199T612 306T663 477T682
719Q682 983 600 1120T354 1257Q308 1257 281 1249Z" />
<glyph unicode="E" glyph-name="E" horiz-adv-x="724" d="M627 788V655H281V137H674V0H123V1380H649V1243H281V788H627Z" />
<glyph unicode="F" glyph-name="F" horiz-adv-x="706" d="M123 0V1380H649V1243H281V760H625V627H281V0H123Z" />
<glyph unicode="G" glyph-name="G" horiz-adv-x="892" d="M803 721V35Q690 -12 557 -12Q353 -12 231 123Q153 206 109 347T66 672Q67 827 98 952T179 1158T298 1293T438 1370T586 1393Q706 1393 782 1354L748 1219Q682 1251 588 1251Q534 1251 485 1234T388 1175T306
1070T250 909T229 686Q229 532 256 419T331 244T435 152T557 123Q621 123 653 139V590H475V721H803Z" />
<glyph unicode="H" glyph-name="H" horiz-adv-x="948" d="M123 1380H281V788H668V1380H825V0H668V645H281V0H123V1380Z" />
<glyph unicode="I" glyph-name="I" horiz-adv-x="407" d="M123 1380H281V0H123V1380Z" />
<glyph unicode="J" glyph-name="J" horiz-adv-x="542" d="M274 387V1380H432V389Q432 275 410 196T345 70T244 4T109 -16Q44 -16 6 -2L20 131Q48 123 96 123Q141 123 172 133T227 172T262 253T274 387Z" />
<glyph unicode="K" glyph-name="K" horiz-adv-x="827" d="M123 0V1380H281V725H285L371 891L629 1380H803L465 791L811 0H641L358 666L281 532V0H123Z" />
<glyph unicode="L" glyph-name="L" horiz-adv-x="704" d="M123 0V1380H281V133H670V0H123Z" />
<glyph unicode="M" glyph-name="M" horiz-adv-x="1226" d="M987 0L958 594Q938 967 944 1135H936Q885 879 825 655L655 8H555L393 629Q311 949 281 1135H274Q274 976 258 584L231 0H90L172 1380H342L504 750Q587 428 614 274H621Q648 439 723 750L879 1380H1055L1135
0H987Z" />
<glyph unicode="N" glyph-name="N" horiz-adv-x="952" d="M266 0H123V1380H272L526 733Q647 426 702 252H707Q688 569 688 887V1380H829V0H680L418 664Q314 922 254 1133H250Q266 886 266 477V0Z" />
<glyph unicode="O" glyph-name="O" horiz-adv-x="913" d="M471 1397Q648 1397 748 1214T848 700Q848 548 828 427T772 224T685 88T576 9T449 -16Q272 -16 169 167T66 692Q66 1028 176 1212T471 1397ZM457 1257Q395 1257 349 1209T278 1078T241 899T229 690Q229
577 241 481T278 301T350 171T459 123Q523 123 569 173T639 309T673 489T684 694Q684 800 674 892T639 1071T568 1207T457 1257Z" />
<glyph unicode="P" glyph-name="P" horiz-adv-x="817" d="M123 0V1360Q225 1386 352 1386Q556 1386 657 1284Q760 1186 760 999Q760 826 676 717Q621 642 534 603T350 563Q303 563 281 565V0H123ZM281 1247V698Q308 692 342 692Q462 692 532 769T602 989Q602 1044
590 1090T551 1175T479 1235T369 1257Q314 1257 281 1247Z" />
<glyph unicode="Q" glyph-name="Q" horiz-adv-x="913" d="M879 -59L821 -186Q632 -108 504 -37Q460 -16 453 -16Q275 -16 171 163T66 692Q66 1031 176 1214T473 1397Q650 1397 749 1213T848 700Q848 160 612 47V39Q678 11 879 -59ZM461 123Q524 123 569 172T639
307T673 488T684 694Q684 801 674 894T639 1073T570 1207T461 1257Q397 1257 350 1207T278 1073T240 893T229 692Q228 583 239 488T275 307T348 173T461 123Z" />
<glyph unicode="R" glyph-name="R" horiz-adv-x="837" d="M123 0V1360Q220 1386 350 1386Q561 1386 662 1288Q758 1189 758 1018Q758 764 537 664V659Q612 637 655 563T723 350Q768 75 801 0H641Q612 60 567 342Q544 484 494 543T342 602H281V0H123ZM281 1251V723H346Q460
723 529 799T598 999Q598 1256 362 1260Q311 1260 281 1251Z" />
<glyph unicode="S" glyph-name="S" horiz-adv-x="739" d="M57 47L92 182Q128 159 184 143T291 127Q397 127 458 191T520 360Q520 448 475 513T338 647Q78 828 78 1030Q78 1188 178 1290T442 1393Q502 1393 556 1378T637 1341L598 1206Q532 1253 434 1253Q339 1253
288 1194T236 1057Q236 1017 245 983T268 925T311 873T365 825T438 772Q678 603 678 375Q678 200 569 94T291 -12Q223 -12 156 6T57 47Z" />
<glyph unicode="T" glyph-name="T" horiz-adv-x="724" d="M285 0V1239H33V1380H694V1239H442V0H285Z" />
<glyph unicode="U" glyph-name="U" horiz-adv-x="935" d="M121 1380H279V455Q279 123 467 123Q657 123 657 455V1380H815V479Q815 223 721 104T463 -16Q121 -16 121 461V1380Z" />
<glyph unicode="V" glyph-name="V" horiz-adv-x="862" d="M510 0H348L33 1380H201L336 733Q408 397 434 203H440Q459 361 532 737L664 1380H831L510 0Z" />
<glyph unicode="W" glyph-name="W" horiz-adv-x="1339" d="M455 0H307L41 1380H205L322 715Q370 414 389 217H397Q402 267 408 315T424 421T440 511T460 617T479 717L606 1380H741L868 731Q931 396 948 217H954Q980 442 1028 723L1143 1380H1296L1028 0H874L741
672Q689 960 672 1124H668Q630 840 592 666L455 0Z" />
<glyph unicode="X" glyph-name="X" horiz-adv-x="802" d="M774 0H608L483 332Q440 449 399 573H393Q325 372 309 328L190 0H29L313 705L39 1380H203L326 1061Q343 1018 408 842H412L485 1067L598 1380H760L489 709L774 0Z" />
<glyph unicode="Y" glyph-name="Y" horiz-adv-x="806" d="M481 0H324V584L20 1380H186L309 1034Q370 867 412 723H416Q449 848 516 1040L633 1380H799L481 590V0Z" />
<glyph unicode="Z" glyph-name="Z" horiz-adv-x="733" d="M41 0V94L514 1239V1245H80V1380H690V1274L225 141V135H688V0H41Z" />
<glyph unicode="[" glyph-name="bracketleft" horiz-adv-x="518" d="M457 -229H152V1397H457V1288H279V-121H457V-229Z" />
<glyph unicode="\" glyph-name="backslash" horiz-adv-x="538" d="M522 -82H403L2 1397H121L522 -82Z" />
<glyph unicode="]" glyph-name="bracketright" horiz-adv-x="518" d="M63 1405H367V-229H63V-121H240V1296H63V1405Z" />
<glyph unicode="^" glyph-name="asciicircum" horiz-adv-x="1220" d="M1090 387H956L612 1182H606L262 387H131L553 1331H668L1090 387Z" />
<glyph unicode="_" glyph-name="underscore" horiz-adv-x="1024" d="M0 -154H1024V-256H0V-154Z" />
<glyph unicode="`" glyph-name="grave" horiz-adv-x="614" d="M80 1397H242L399 1120H295L80 1397Z" />
<glyph unicode="a" glyph-name="a" horiz-adv-x="745" d="M645 0H502L492 104H485Q416 -16 289 -16Q188 -16 121 62T53 266Q53 338 75 398T137 499T230 570T345 612T475 627V657Q475 767 440 825T317 883Q233 883 154 831L119 942Q153 968 217 988T350 1008Q635
1008 635 653V225Q635 63 645 0ZM479 311V512Q457 512 438 511T390 504T338 490T289 464T246 423T218 363T207 283Q207 194 243 150T328 106Q381 106 421 145T475 256Q479 274 479 311Z" />
<glyph unicode="b" glyph-name="b" horiz-adv-x="817" d="M236 0H100Q101 18 103 68T107 163T109 238V1417H266V874H270Q340 1008 479 1008Q598 1008 674 875T750 506Q750 376 725 274T657 110T561 16T449 -16Q376 -16 331 21T252 129H246L236 0ZM266 627V350Q266
305 272 289Q297 190 337 153T420 115Q466 115 500 144T553 228T582 349T592 498Q592 603 576 684T519 818T418 872Q365 872 323 818T270 696Q266 674 266 627Z" />
<glyph unicode="c" glyph-name="c" horiz-adv-x="618" d="M573 145L594 25Q532 -12 430 -12Q264 -12 166 118T68 489Q68 633 113 749T248 935T459 1006Q542 1006 598 975L567 846Q515 872 455 872Q380 872 326 816T249 676T225 489Q225 316 287 218T459 119Q514
119 573 145Z" />
<glyph unicode="d" glyph-name="d" horiz-adv-x="817" d="M551 1417H707V238Q707 228 715 0H580L569 125H563Q535 65 482 25T356 -16Q227 -16 148 118T68 492Q68 741 155 874T367 1008Q424 1008 471 979T547 889H551V1417ZM551 350V614Q551 657 549 680Q541 758
499 815T401 872Q354 872 319 841T264 756T235 636T225 492Q225 385 243 302T299 167T393 115Q504 115 545 285Q551 312 551 350Z" />
<glyph unicode="e" glyph-name="e" horiz-adv-x="743" d="M682 481H221Q223 113 457 113Q555 113 621 152L645 35Q562 -12 428 -12Q253 -12 161 120T68 485Q68 725 159 866T401 1008Q474 1008 530 972T619 873T668 734T684 569Q684 506 682 481ZM223 598H532Q536
738 492 811T385 885Q314 885 271 798T223 598Z" />
<glyph unicode="f" glyph-name="f" horiz-adv-x="466" d="M301 0H143V870H18V991H143V1051Q143 1248 231 1350Q308 1434 430 1434Q501 1434 553 1409L526 1286Q488 1303 440 1303Q301 1303 301 1053V991H481V870H301V0Z" />
<glyph unicode="g" glyph-name="g" horiz-adv-x="817" d="M575 991H717Q709 715 709 682V127Q709 -60 686 -153T610 -303Q517 -410 346 -410Q217 -410 129 -360L166 -238Q250 -281 350 -281Q449 -281 501 -210T553 23V123H549Q523 65 473 34T358 2Q227 2 148 137T68
492Q68 623 95 725T169 887T268 977T379 1008Q502 1008 563 879H567L575 991ZM553 362V649Q553 693 545 721Q537 751 527 773T501 820T459 858T401 872Q317 872 271 770T225 500Q225 319 274 225T401 131Q504 131 543 272Q553 311 553 362Z" />
<glyph unicode="h" glyph-name="h" horiz-adv-x="829" d="M111 0V1417H268V885H272Q302 934 354 971Q416 1008 487 1008Q589 1008 654 921T719 657V0H561V639Q561 874 428 874Q372 874 333 834T274 717Q268 682 268 641V0H111Z" />
<glyph unicode="i" glyph-name="i" horiz-adv-x="376" d="M268 0H111V991H268V0ZM186 1350Q229 1350 255 1322T281 1247Q282 1201 256 1173T184 1145Q145 1145 120 1173T94 1247Q94 1293 120 1321T186 1350Z" />
<glyph unicode="j" glyph-name="j" horiz-adv-x="385" d="M-37 -410L-57 -285Q-26 -276 -8 -270T35 -247T76 -207Q103 -167 113 -99T123 109V991H281V63Q281 -89 258 -174T180 -315Q139 -358 77 -383T-37 -410ZM203 1350Q244 1350 269 1322T295 1247T269 1173T199
1145Q159 1145 133 1173T109 1247Q107 1293 133 1321T203 1350Z" />
<glyph unicode="k" glyph-name="k" horiz-adv-x="724" d="M266 1417V530H270Q276 543 287 566T307 608T324 641L520 991H690L428 573L713 0H537L322 467L266 375V0H109V1417H266Z" />
<glyph unicode="l" glyph-name="l" horiz-adv-x="391" d="M111 0V1417H268V0H111Z" />
<glyph unicode="m" glyph-name="m" horiz-adv-x="1269" d="M111 0V735Q111 803 107 886T102 991H240L248 868H252Q286 932 343 970T475 1008Q629 1008 682 856H686Q726 929 784 969Q842 1008 922 1008Q1029 1008 1094 922T1159 657V0H1004V621Q1004 676 999 716T980
794T937 853T864 874Q815 874 775 835T719 727Q713 686 713 637V0H557V649Q557 696 552 732T533 802T491 855T420 874Q369 874 328 832T272 715Q266 675 266 629V0H111Z" />
<glyph unicode="n" glyph-name="n" horiz-adv-x="829" d="M111 0V735Q111 803 107 886T102 991H240L248 872H252Q285 934 344 971T479 1008Q588 1008 653 923T719 666V0H561V639Q561 874 424 874Q372 874 331 832T274 713Q268 675 268 625V0H111Z" />
<glyph unicode="o" glyph-name="o" horiz-adv-x="784" d="M399 1008Q539 1008 629 876T719 496Q719 385 699 296T647 150T571 55T482 0T389 -16Q248 -16 158 114T68 494Q68 625 95 726T170 888T275 978T399 1008ZM393 881Q353 881 322 855T273 790T244 696T229
595T225 496Q225 442 229 393T244 290T274 198T324 134T397 109Q445 109 479 146T529 246T552 369T559 496Q559 561 552 621T529 743T477 843T393 881Z" />
<glyph unicode="p" glyph-name="p" horiz-adv-x="817" d="M109 -393V682Q109 750 108 809T104 920T100 991H242L250 864H254Q325 1008 463 1008Q594 1008 672 873T750 498Q750 365 724 264T654 103T557 14T442 -16Q326 -16 270 98H266V-393H109ZM266 616V365Q266
305 272 283Q293 188 334 152T418 115Q465 115 499 145T553 231T581 351T590 496Q590 603 573 685T516 819T416 872Q364 872 322 817T270 692Q266 668 266 616Z" />
<glyph unicode="q" glyph-name="q" horiz-adv-x="817" d="M551 -393V102H545Q519 49 469 17T354 -16Q230 -16 149 115T68 483Q68 734 158 871T379 1008Q503 1008 563 877L567 874L575 991H717Q709 853 709 682V-393H551ZM551 365V621Q551 668 547 686Q538 765
497 818T403 872Q312 872 269 767T225 492Q225 326 269 221T399 115Q503 115 543 281Q551 305 551 365Z" />
<glyph unicode="r" glyph-name="r" horiz-adv-x="507" d="M109 0V735Q109 784 105 878T100 991H242L250 836H254Q280 909 338 958T463 1008Q469 1008 480 1007T496 1006V844Q485 846 463 846Q389 846 337 787T272 639Q266 598 266 549V0H109Z" />
<glyph unicode="s" glyph-name="s" horiz-adv-x="591" d="M45 45L84 164Q162 113 244 113Q311 113 350 151T389 256Q389 315 362 358T262 451Q161 517 112 583T63 733Q63 852 141 930T336 1008Q429 1008 514 956L471 838Q405 881 340 881Q279 881 245 844T211
756T236 670T334 584Q431 522 485 450T539 283Q539 140 455 64T242 -12Q186 -12 132 3T45 45Z" />
<glyph unicode="t" glyph-name="t" horiz-adv-x="522" d="M145 1208L303 1253V991H494V870H303V283Q303 119 408 119Q444 119 471 125L477 4Q432 -12 360 -12Q259 -12 205 47Q145 116 145 297V870H25V991H145V1208Z" />
<glyph unicode="u" glyph-name="u" horiz-adv-x="815" d="M705 991V270Q705 204 709 103T713 0H575L565 104H561Q532 58 476 21T348 -16Q221 -16 164 79T106 365V991H264V387Q264 302 274 246T314 154T397 117Q458 117 494 159T539 248Q547 283 547 338V991H705Z" />
<glyph unicode="v" glyph-name="v" horiz-adv-x="710" d="M27 991H190L315 434Q340 323 358 193H365Q376 282 406 434L528 991H684L426 0H285L27 991Z" />
<glyph unicode="w" glyph-name="w" horiz-adv-x="1159" d="M27 991H190L287 506Q293 471 305 406T326 288T340 190H348Q366 322 410 502L524 991H645L754 516Q801 300 817 190H825Q842 330 879 510L973 991H1130L881 0H752L637 481Q609 590 582 778H578Q554 614
520 475L401 0H268L27 991Z" />
<glyph unicode="x" glyph-name="x" horiz-adv-x="696" d="M29 991H199L291 778Q300 756 356 604H360Q374 642 398 706T426 778L516 991H678L442 502L676 0H504L410 223Q405 235 344 393H340Q328 358 274 223L182 0H23L258 498L29 991Z" />
<glyph unicode="y" glyph-name="y" horiz-adv-x="708" d="M27 991H193L324 422Q334 377 347 307T365 217H369Q386 308 412 420L528 991H684L522 354Q467 128 412 -27T276 -285Q230 -344 182 -382T98 -436L41 -301Q113 -261 180 -176Q238 -104 270 -10Q281 19 281
39Q281 63 276 76L27 991Z" />
<glyph unicode="z" glyph-name="z" horiz-adv-x="641" d="M33 0V96L346 709Q358 731 386 781T426 856V860H72V991H600V887L291 283Q279 261 251 210T211 135V131H600V0H33Z" />
<glyph unicode="{" glyph-name="braceleft" horiz-adv-x="518" d="M59 537V639Q136 639 167 680T199 782Q199 850 186 956Q174 1080 174 1137Q174 1269 245 1334T432 1399H457V1292H426Q305 1292 305 1139Q305 1081 317 983Q328 866 328 831Q329 718 294 665T186
592V588Q258 566 293 512T328 344Q328 304 317 190Q305 88 305 33Q305 -123 428 -123H457V-229H430Q377 -229 333 -215T252 -172T195 -90T174 33Q174 97 186 215Q199 325 199 391Q199 451 168 494T59 537Z" />
<glyph unicode="|" glyph-name="bar" horiz-adv-x="411" d="M141 1536H270V-512H141V1536Z" />
<glyph unicode="}" glyph-name="braceright" horiz-adv-x="518" d="M459 639V537Q382 537 351 494T319 391Q319 343 332 215Q344 97 344 33Q344 -38 324 -90T267 -171T186 -215T88 -229H61V-123H90Q157 -116 185 -78T213 33Q213 63 203 190Q190 303 190 344Q189
458 224 512T332 588V592Q260 612 225 665T190 831Q190 868 203 983Q213 1106 213 1139Q213 1209 184 1247T92 1292H61V1399H86Q202 1399 273 1334T344 1137Q344 1080 332 956Q319 832 319 782Q319 722 350 681T459 639Z" />
<glyph unicode="~" glyph-name="asciitilde" horiz-adv-x="1220" d="M260 453H150Q145 583 207 655T375 727Q473 727 639 641Q794 559 866 559Q917 559 941 603T963 719H1073Q1080 584 1023 513T862 442Q804 442 746 460T598 524Q513 569 460 590T362 612Q312
612 286 572T260 453Z" />
</font>
</defs>
</svg>
